<svg width="40px" height="40px" viewBox="0 0 40 40" version="1.1" xmlns="http://www.w3.org/2000/svg" xmlns:xlink="http://www.w3.org/1999/xlink">
    <!-- Generator: sketchtool 49.3 (51167) - http://www.bohemiancoding.com/sketch -->
    <title>D872D4AA-D2DC-41C8-8D65-806FCCD1ADEB</title>
    <desc>Created with sketchtool.</desc>
    <defs></defs>
    <g id="Symbols" stroke="none" stroke-width="1" fill="none" fill-rule="evenodd">
        <g id="Group-12">
            <g>
                <g id="Page-1" transform="translate(8.000000, 11.000000)">
                    <g id="Group-3" transform="translate(0.000000, 0.004474)"></g>
                </g>
                <rect id="Rectangle-5" fill="#FFFFFF" opacity="0" x="0" y="0" width="40" height="40"></rect>
                <path d="M16.3961501,23.8339848 C16.0242163,24.0049791 15.5007791,24.091459 14.8306158,24.091459 L11.0792026,24.091459 L11.0792026,20.1893822 L14.8838467,20.1893822 C15.5451382,20.1952785 16.0610684,20.2784827 16.4282251,20.4370291 C17.0854219,20.7226748 17.4116318,21.2448298 17.4116318,22.007425 C17.4116318,22.9069468 17.0738203,23.5136162 16.3961501,23.8339848 L16.3961501,23.8339848 Z M11.0792026,14.5400188 L14.4429857,14.5400188 C15.1820762,14.5400188 15.7908193,14.6166714 16.2698973,14.7686663 C16.8226797,14.9887969 17.0990709,15.4382302 17.0990709,16.1215523 C17.0990709,16.7341181 16.8888771,17.1625865 16.4712193,17.4049922 C16.0508317,17.647398 15.5055563,17.7686008 14.8367578,17.7686008 L11.0792026,17.7686008 L11.0792026,14.5400188 Z M18.2851644,18.7794982 C19.0727087,19.0520408 19.6664379,19.4818196 20.0711292,20.0707999 C20.4710434,20.65847 20.6723654,21.3738944 20.6723654,22.2151078 C20.6723654,23.0825271 20.443063,23.860846 19.9824111,24.548099 C19.6916885,25.0034286 19.3272616,25.388002 18.8891304,25.6991985 C18.3970858,26.0575659 17.8163231,26.3006268 17.1441124,26.4342775 C16.4725842,26.5666179 15.7464602,26.6308227 14.9616457,26.6308227 L8,26.6308227 L8,12 L15.4659743,12 C17.3502115,12.026206 18.6837137,12.5457404 19.4698931,13.5586032 C19.9414642,14.1809963 20.1782734,14.9245922 20.1782734,15.7920115 C20.1782734,16.6836715 19.9414642,17.4036819 19.463751,17.9468018 C19.1962317,18.2501365 18.8038244,18.5285755 18.2851644,18.7794982 Z M23.9747965,14.5026752 L23.9747965,12.6820117 L30.5952185,12.6820117 L30.5952185,14.5026752 L23.9747965,14.5026752 Z M31.9842036,17.6320019 C32.4564572,18.2753598 32.7594638,19.0215763 32.8973182,19.8693411 C32.9785294,20.364635 33.0106045,21.0833352 32.9969555,22.0175799 L24.6731449,22.0175799 C24.7229635,23.1018541 25.1167357,23.863139 25.8701576,24.2994693 C26.32535,24.5707017 26.8740376,24.706973 27.5175855,24.706973 C28.1952558,24.706973 28.749403,24.5412199 29.1738853,24.211024 C29.4079648,24.0315127 29.6133814,23.7838658 29.7901353,23.4667729 L32.8399926,23.4667729 C32.7594638,24.1068551 32.3888949,24.7600402 31.733063,25.4223974 C30.7100744,26.4732589 29.2769349,27 27.4350094,27 C25.9138342,27 24.5721426,26.5571182 23.4119821,25.668734 C22.246362,24.7823153 21.6669642,23.3370531 21.6669642,21.3375336 C21.6669642,19.4624926 22.1917662,18.0244371 23.2400054,17.0240222 C24.2909743,16.0255727 25.6504095,15.5230722 27.3251354,15.5230722 C28.3201436,15.5230722 29.2148322,15.6927562 30.0119307,16.0308139 C30.8103941,16.3682165 31.4669085,16.9028193 31.9842036,17.6320019 Z M24.7468492,20.1504007 L29.8959146,20.1504007 C29.8413188,19.398943 29.5737995,18.8309275 29.100181,18.4398026 C28.6211029,18.0512983 28.0314684,17.8573737 27.3265003,17.8573737 C26.5621592,17.8573737 25.9650177,18.0637462 25.5432653,18.4758359 C25.1215128,18.8879256 24.8553583,19.4461139 24.7468492,20.1504007 Z" id="Combined-Shape" fill="#3A3A3A"></path>
            </g>
        </g>
    </g>
</svg>