<svg width="40px" height="40px" viewBox="0 0 40 40" version="1.1" xmlns="http://www.w3.org/2000/svg" xmlns:xlink="http://www.w3.org/1999/xlink">
    <g id="Symbols" stroke="none" stroke-width="1" fill="none" fill-rule="evenodd">
        <g id="Group-10">
            <g>
                <rect id="Rectangle-5" fill-opacity="0" fill="#FFFFFF" x="0" y="0" width="40" height="40"></rect>
                <path d="M22.2199106,19.1166462 C22.1557779,18.9631902 22.0927905,18.8091616 22.0263675,18.6551329 C21.8396957,18.2153783 21.638136,17.7807771 21.429705,17.3536196 C24.9707422,15.9078119 26.4080002,13.8298569 26.4257512,13.8052352 C27.6826362,15.3323517 28.4447838,17.2831902 28.4653978,19.4103885 C28.3359873,19.3817587 25.3005672,18.728998 22.2199106,19.1166462 M24.5115068,26.9366053 C24.4204614,26.3960736 23.9423297,23.7638446 22.7656105,20.5326789 C25.6613132,20.0700204 28.169357,20.8636401 28.354311,20.9243354 C27.9557725,23.4231493 26.5242406,25.5772597 24.5115068,26.9366053 M19.5005726,28.4677301 C17.3830507,28.4677301 15.4378852,27.7313701 13.9027104,26.5031493 C13.8700714,26.4785276 13.8328516,26.4487526 13.7870426,26.4121063 C13.8328516,26.4487526 13.8700714,26.4785276 13.9027104,26.5031493 C13.9548181,26.5438037 13.9886023,26.568998 13.9886023,26.568998 C13.9886023,26.568998 15.7075858,22.8207771 21.026013,20.9672802 C21.0454818,20.9598364 21.0666685,20.954683 21.0867099,20.9489571 C22.3481758,24.2265031 22.8681082,26.9726789 23.001527,27.7565644 C21.9261602,28.2134969 20.7414244,28.4677301 19.5005726,28.4677301 M12.8307793,25.4919427 C11.4015379,23.9029857 10.5323117,21.803272 10.5323117,19.4991411 C10.5323117,19.40409 10.5374652,19.310184 10.5397557,19.2168507 C10.698942,19.2202863 15.1298195,19.3204908 19.7467961,17.9388139 C20.0033266,18.4409816 20.2489775,18.953456 20.4740143,19.4636401 C20.3554834,19.4957055 20.2380978,19.5317791 20.1207122,19.5707157 C15.2815619,21.1339059 12.826771,25.487362 12.826771,25.487362 C12.826771,25.487362 12.8307793,25.4907975 12.8307793,25.4919427 M15.6743742,11.3917382 C15.7940503,11.5509202 17.4523368,13.7989366 19.00469,16.557137 C14.6986421,17.7017587 10.9606261,17.6559509 10.7252822,17.6525153 C11.3064842,14.874274 13.1726291,12.5718609 15.6743742,11.3917382 M17.3521296,10.7939468 C17.3521296,10.795092 17.3509843,10.7968098 17.3509843,10.7968098 C17.3509843,10.7968098 17.3401047,10.7991002 17.3240715,10.8013906 C17.333806,10.7991002 17.3423952,10.797955 17.3521296,10.7939468 M19.5005726,10.5334151 C21.7704096,10.5334151 23.8438403,11.3802863 25.4231063,12.7716973 C25.4007744,12.8054806 24.123848,14.7500204 20.7379888,16.0177505 C19.205677,13.2017178 17.5216229,10.9645808 17.387059,10.7865031 C18.0650324,10.6227403 18.7722092,10.5334151 19.5005726,10.5334151 M29.1742924,15.4130879 C28.9126084,14.7906748 28.5850739,14.190593 28.2060043,13.6300204 C27.8320881,13.0746012 27.3997655,12.5506748 26.9256421,12.077137 C26.4503736,11.6013088 25.9281507,11.1707157 25.3709985,10.795092 C24.8104106,10.4148875 24.2103125,10.0902249 23.5878824,9.82625767 C22.9534275,9.5594274 22.2891967,9.35214724 21.6146589,9.21529652 C20.9235153,9.07271984 20.2123303,9 19.5005726,9 C18.7882424,9 18.0770573,9.07271984 17.3859137,9.21529652 C16.7113759,9.35214724 16.0471451,9.5594274 15.4121176,9.82625767 C14.7896875,10.0902249 14.190162,10.4148875 13.6284289,10.795092 C13.0724219,11.1707157 12.5501991,11.6013088 12.0749305,12.077137 C11.6008071,12.5506748 11.1696297,13.0746012 10.7939957,13.6300204 C10.4149261,14.190593 10.0879642,14.7906748 9.8262802,15.4130879 C9.55715221,16.0475256 9.350439,16.7128834 9.21243933,17.3868303 C9.07157659,18.0773824 9,18.7879755 9,19.4991411 C9,20.2131697 9.07157659,20.9243354 9.21243933,21.6154601 C9.350439,22.2899796 9.55715221,22.9536196 9.8262802,23.5874847 C10.0879642,24.2093252 10.4149261,24.8116973 10.7939957,25.3722699 C11.1696297,25.9282618 11.6008071,26.4493252 12.0749305,26.925726 C12.5501991,27.3998364 13.0724219,27.8292843 13.6284289,28.2060532 C14.190162,28.5851125 14.7896875,28.9109202 15.4121176,29.1737423 C16.0471451,29.442863 16.7113759,29.6478528 17.3859137,29.7852761 C18.0770573,29.9284254 18.7882424,30 19.5005726,30 C20.2123303,30 20.9235153,29.9284254 21.6146589,29.7852761 C22.2891967,29.6478528 22.9534275,29.442863 23.5878824,29.1737423 C24.2103125,28.9109202 24.8104106,28.5851125 25.3709985,28.2060532 C25.9281507,27.8292843 26.4503736,27.3998364 26.9256421,26.925726 C27.3997655,26.4493252 27.8320881,25.9282618 28.2060043,25.3722699 C28.5850739,24.8116973 28.9126084,24.2093252 29.1742924,23.5874847 C29.4422752,22.9536196 29.649561,22.2899796 29.7881333,21.6154601 C29.9284234,20.9243354 30,20.2131697 30,19.4991411 C30,18.7879755 29.9284234,18.0773824 29.7881333,17.3868303 C29.649561,16.7128834 29.4422752,16.0475256 29.1742924,15.4130879" id="Fill-1" fill="#3A3A3A"></path>
            </g>
        </g>
    </g>
</svg>