<svg width="40px" height="40px" viewBox="0 0 40 40" version="1.1" xmlns="http://www.w3.org/2000/svg" xmlns:xlink="http://www.w3.org/1999/xlink">
    <g id="Page-1" stroke="none" stroke-width="1" fill="none" fill-rule="evenodd">
        <g id="20-april" transform="translate(-1160.000000, -6500.000000)">
            <g id="Group-8" transform="translate(1160.000000, 6500.000000)">
                <g>
                    <rect id="Rectangle-5" fill-opacity="0" fill="#D8D8D8" x="0" y="0" width="40" height="40" rx="2"></rect>
                    <path d="M20.0000198,10 C22.7158369,10 23.0563809,10.0115116 24.1229872,10.0601777 C25.1873706,10.1087248 25.9143063,10.277786 26.55038,10.5250069 C27.2079684,10.780524 27.7656443,11.1224573 28.3216134,11.6783866 C28.8775427,12.2343557 29.219476,12.7920316 29.4750328,13.44962 C29.722214,14.0856937 29.8912752,14.8126294 29.9398223,15.8770128 C29.9884884,16.9436191 30,17.2841631 30,20.0000198 C30,22.7158369 29.9884884,23.0563809 29.9398223,24.1229872 C29.8912752,25.1873706 29.722214,25.9143063 29.4750328,26.55038 C29.219476,27.2079684 28.8775427,27.7656443 28.3216134,28.3216134 C27.7656443,28.8775427 27.2079684,29.219476 26.55038,29.4750328 C25.9143063,29.722214 25.1873706,29.8912752 24.1229872,29.9398223 C23.0563809,29.9884884 22.7158369,30 20.0000198,30 C17.2841631,30 16.9436191,29.9884884 15.8770128,29.9398223 C14.8126294,29.8912752 14.0856937,29.722214 13.44962,29.4750328 C12.7920316,29.219476 12.2343557,28.8775427 11.6783866,28.3216134 C11.1224573,27.7656443 10.780524,27.2079684 10.5250069,26.55038 C10.277786,25.9143063 10.1087248,25.1873706 10.0601777,24.1229872 C10.0115116,23.0563809 10,22.7158369 10,20.0000198 C10,17.2841631 10.0115116,16.9436191 10.0601777,15.8770128 C10.1087248,14.8126294 10.277786,14.0856937 10.5250069,13.44962 C10.780524,12.7920316 11.1224573,12.2343557 11.6783866,11.6783866 C12.2343557,11.1224573 12.7920316,10.780524 13.44962,10.5250069 C14.0856937,10.277786 14.8126294,10.1087248 15.8770128,10.0601777 C16.9436191,10.0115116 17.2841631,10 20.0000198,10 Z M20.0000196,11.9047619 C17.3634263,11.9047619 17.0511085,11.9148354 16.009892,11.9623416 C15.0471471,12.0062417 14.5243047,12.1671042 14.1763571,12.3023322 C13.7154452,12.4814603 13.386508,12.6954341 13.0409907,13.0409907 C12.6954341,13.386508 12.4814603,13.7154452 12.3023322,14.1763571 C12.1671042,14.5243047 12.0062417,15.0471471 11.9623416,16.009892 C11.9148354,17.0511085 11.9047619,17.3634263 11.9047619,20.0000196 C11.9047619,22.6365737 11.9148354,22.9488915 11.9623416,23.990108 C12.0062417,24.9528529 12.1671042,25.4756953 12.3023322,25.8236429 C12.4814603,26.2845548 12.6954733,26.613492 13.0409907,26.9590093 C13.386508,27.3045659 13.7154452,27.5185397 14.1763571,27.6976678 C14.5243047,27.8328958 15.0471471,27.9937583 16.009892,28.0376584 C17.0509909,28.0851646 17.3632304,28.0952381 20.0000196,28.0952381 C22.6367696,28.0952381 22.9490483,28.0851646 23.990108,28.0376584 C24.9528529,27.9937583 25.4756953,27.8328958 25.8236429,27.6976678 C26.2845548,27.5185397 26.613492,27.3045659 26.9590093,26.9590093 C27.3045659,26.613492 27.5185397,26.2845548 27.6976678,25.8236429 C27.8328958,25.4756953 27.9937583,24.9528529 28.0376584,23.990108 C28.0851646,22.9488915 28.0952381,22.6365737 28.0952381,20.0000196 C28.0952381,17.3634263 28.0851646,17.0511085 28.0376584,16.009892 C27.9937583,15.0471471 27.8328958,14.5243047 27.6976678,14.1763571 C27.5185397,13.7154452 27.3045659,13.386508 26.9590093,13.0409907 C26.613492,12.6954341 26.2845548,12.4814603 25.8236429,12.3023322 C25.4756953,12.1671042 24.9528529,12.0062417 23.990108,11.9623416 C22.9488915,11.9148354 22.6365737,11.9047619 20.0000196,11.9047619 Z M20.0000202,14.7619048 C22.8929387,14.7619048 25.2380952,17.1070613 25.2380952,20.0000202 C25.2380952,22.8929387 22.8929387,25.2380952 20.0000202,25.2380952 C17.1070613,25.2380952 14.7619048,22.8929387 14.7619048,20.0000202 C14.7619048,17.1070613 17.1070613,14.7619048 20.0000202,14.7619048 Z M20.0000198,23.3333333 C21.8409578,23.3333333 23.3333333,21.8409578 23.3333333,20.0000198 C23.3333333,18.1590422 21.8409578,16.6666667 20.0000198,16.6666667 C18.1590422,16.6666667 16.6666667,18.1590422 16.6666667,20.0000198 C16.6666667,21.8409578 18.1590422,23.3333333 20.0000198,23.3333333 Z M27.1428571,15.2381189 C27.1428571,16.0271044 26.5032477,16.6666667 25.7142621,16.6666667 C24.9253238,16.6666667 24.2857143,16.0271044 24.2857143,15.2381189 C24.2857143,14.4491333 24.9253238,13.8095238 25.7142621,13.8095238 C26.5032477,13.8095238 27.1428571,14.4491333 27.1428571,15.2381189 Z" id="Combined-Shape" fill="#3A3A3A"></path>
                </g>
            </g>
        </g>
    </g>
</svg>