<?xml version="1.0" encoding="utf-8"?>
<!-- Generator: Adobe Illustrator 26.1.0, SVG Export Plug-In . SVG Version: 6.00 Build 0)  -->
<svg version="1.1" id="Layer_1" xmlns="http://www.w3.org/2000/svg" xmlns:xlink="http://www.w3.org/1999/xlink" x="0px" y="0px"
	 viewBox="0 0 40 40" style="enable-background:new 0 0 40 40;" xml:space="preserve">
<style type="text/css">
	.st0{fill-rule:evenodd;clip-rule:evenodd;fill:#FFFFFF;fill-opacity:0;}
	.st1{fill-rule:evenodd;clip-rule:evenodd;fill:#3A3A3A;}
</style>
<g id="Symbols">
	<g id="Group-14">
		<g>
			<g id="Page-1" transform="translate(10.000000, 17.000000)">
				<g id="Group-7" transform="translate(0.000000, 0.292119)">
					<g id="Group-6">
						<g id="Clip-5">
						</g>
					</g>
				</g>
			</g>
			<rect id="Rectangle-5" class="st0" width="40" height="40"/>
			<path id="Combined-Shape" class="st1" d="M10.5,28V14.4h3.9V28H10.5z M25.1,14.3c2.8,0,4.9,2,4.9,6.2V28h-4.4v-7
				c0-1.8-0.7-3.1-2.2-3.1c-1.2,0-1.8,0.8-2.1,1.7c-0.1,0.3-0.1,0.7-0.1,1.1V28h-4.4c0,0,0.1-12.5,0-13.6h4.4v2.1
				C21.4,15.6,22.8,14.3,25.1,14.3z M12.4,8c1.4,0,2.3,1,2.4,2.4c0,1.3-0.9,2.4-2.4,2.4h0c-1.4,0-2.3-1-2.3-2.4C10,9,10.9,8,12.4,8z
				"/>
		</g>
	</g>
</g>
</svg>
