<svg width="40px" height="40px" viewBox="0 0 40 40" version="1.1" xmlns="http://www.w3.org/2000/svg" xmlns:xlink="http://www.w3.org/1999/xlink">
    <defs></defs>
    <g id="Symbols" stroke="none" stroke-width="1" fill="none" fill-rule="evenodd">
        <g id="Group-9">
            <g>
                <g id="Monogram" transform="translate(9.000000, 9.000000)"></g>
                <rect id="Rectangle-5" fill-opacity="0" fill="#FFFFFF" x="0" y="0" width="40" height="40"></rect>
                <path d="M9,9 L31,9 L31,31 L9,31 L9,9 Z M14.2499988,16.357675 L14.2499988,22.8899893 C14.2901971,23.1256342 14.2159137,23.366347 14.049903,23.5383922 L12.4974359,25.4215198 L12.4974359,25.6698443 L16.8995427,25.6698443 L16.8995427,25.4215198 L15.3470756,23.5383922 C15.1798474,23.3666318 15.1009642,23.1275052 15.1331801,22.8899893 L15.1331801,17.2406066 L18.9970983,25.6698443 L19.4455888,25.6698443 L22.7644186,17.2406066 L22.7644186,23.9591643 C22.7644186,24.1385098 22.7644186,24.1729993 22.6471211,24.2902637 L21.4534464,25.4491114 L21.4534464,25.6974359 L27.2493237,25.6974359 L27.2493237,25.4491114 L26.0970481,24.3178553 C25.9953299,24.2403197 25.9448725,24.1128847 25.9659509,23.9867559 L25.9659509,15.6747826 C25.9448725,15.5486538 25.9953299,15.4212187 26.0970481,15.3436832 L27.2769231,14.2124271 L27.2769231,13.9641026 L23.1922096,13.9641026 L20.2804712,21.2275946 L16.9685413,13.9641026 L12.683732,13.9641026 L12.683732,14.2124271 L14.0637027,15.8748217 C14.1991754,15.9969286 14.2683612,16.1762485 14.2499988,16.357675 Z" id="Combined-Shape" fill="#3A3A3A" fill-rule="nonzero"></path>
            </g>
        </g>
    </g>
</svg>