<svg width="40px" height="40px" viewBox="0 0 40 40" version="1.1" xmlns="http://www.w3.org/2000/svg" xmlns:xlink="http://www.w3.org/1999/xlink">
    <defs>
        <polygon id="path-1" points="0.000114417157 0.000224999999 21.4264428 0.000224999999 21.4264428 17.5563 0.000114417157 17.5563"></polygon>
    </defs>
    <g id="Symbols" stroke="none" stroke-width="1" fill="none" fill-rule="evenodd">
        <g id="Page-1">
            <g transform="translate(9.000000, 11.000000)">
                <mask id="mask-2" fill="white">
                    <use xlink:href="#path-1"></use>
                </mask>
                <g id="Clip-2"></g>
            </g>
            <rect id="Rectangle-5" fill="#FFFFFF" opacity="0" x="0" y="0" width="40" height="40"></rect>
            <path d="M29.4207941,11.3327673 C28.5875898,11.8529685 27.6669159,12.2312967 26.6828825,12.4337253 C25.8995808,11.5507674 24.778736,11 23.5390222,11 C21.1610819,11 19.2317037,13.0346673 19.2317037,15.5439749 C19.2317037,15.899811 19.2692708,16.2458428 19.3427229,16.5786101 C15.7620751,16.3888693 12.5879369,14.5814296 10.4617521,11.829323 C10.0905668,12.5029317 9.87862121,13.2843869 9.87862121,14.1165935 C9.87862121,15.6921919 10.6394948,17.0832399 11.7951032,17.8981449 C11.0908605,17.8762295 10.4247457,17.6697639 9.84329693,17.3312294 L9.84329693,17.3877479 C9.84329693,19.5896639 11.3280378,21.4265163 13.3005901,21.8429079 C12.9389368,21.9496011 12.5587803,22.0026593 12.1657277,22.0026593 C11.8876191,22.0026593 11.6167997,21.9755535 11.3538301,21.9219186 C11.9027581,23.7270514 13.4929111,25.0413957 15.3785545,25.0765756 C13.9044669,26.2957611 12.0457373,27.0230047 10.0277681,27.0230047 C9.68013243,27.0230047 9.33642165,27.0016661 9,26.9601423 C10.9063893,28.2473807 13.1721891,29 15.603957,29 C23.530051,29 27.8631618,22.0770562 27.8631618,16.0716734 C27.8631618,15.8744353 27.8592369,15.6766204 27.8519478,15.4828426 C28.6935626,14.8415302 29.424719,14.0421967 30,13.1309795 C29.228473,13.492006 28.3980723,13.7365352 27.5261795,13.8455352 C28.4165754,13.2843869 29.0995114,12.3933549 29.4207941,11.3327673" id="Fill-1" fill="#3A3A3A"></path>
        </g>
    </g>
</svg>