<svg xmlns="http://www.w3.org/2000/svg" viewBox="0 0 89.7 101.92"><defs><style>.cls-1,.cls-2,.cls-3,.cls-4{fill:none;stroke-miterlimit:10;stroke-width:3.3px;}.cls-1,.cls-2{stroke:#000111;}.cls-2,.cls-3{fill-rule:evenodd;}.cls-3,.cls-4{stroke:#ff523d;}</style></defs><g id="Layer_2" data-name="Layer 2"><g id="Layer_1-2" data-name="Layer 1"><path class="cls-1" d="M16.2,85.29H5.65a4,4,0,0,1-4-4V5.65a4,4,0,0,1,4-4H70a4,4,0,0,1,4,4v17.1"/><line class="cls-1" x1="58.19" y1="40.23" x2="44.21" y2="40.23"/><line class="cls-1" x1="58.19" y1="85.29" x2="44.18" y2="85.29"/><line class="cls-1" x1="30" y1="54.63" x2="30" y2="67.8"/><line class="cls-1" x1="73.6" y1="54.18" x2="73.6" y2="67.8"/><path class="cls-2" d="M85.7,30,75.6,24.18a4,4,0,0,0-4,0L61.5,30a4,4,0,0,0-2,3.47V45.14a4,4,0,0,0,2,3.46l10.1,5.83a4,4,0,0,0,4,0L85.7,48.6a4,4,0,0,0,2-3.46V33.48A4,4,0,0,0,85.7,30Z"/><polyline class="cls-2" points="59.5 31.86 73.6 39.99 87.7 31.86"/><line class="cls-1" x1="73.6" y1="40" x2="73.6" y2="55.59"/><path class="cls-3" d="M42.1,29.78,32,24a4,4,0,0,0-4,0L17.9,29.78a4,4,0,0,0-2,3.46V44.91a4,4,0,0,0,2,3.46L28,54.2a4,4,0,0,0,4,0l10.1-5.83a4,4,0,0,0,2-3.46V33.24A4,4,0,0,0,42.1,29.78Z"/><polyline class="cls-3" points="15.9 31.62 30 39.76 44.1 31.62"/><line class="cls-4" x1="30" y1="39.76" x2="30" y2="55.36"/><path class="cls-2" d="M42.1,75.31,32,69.48a4,4,0,0,0-4,0L17.9,75.31a4,4,0,0,0-2,3.46V90.43a4,4,0,0,0,2,3.47L28,99.73a4,4,0,0,0,4,0L42.1,93.9a4,4,0,0,0,2-3.47V78.77A4,4,0,0,0,42.1,75.31Z"/><polyline class="cls-2" points="15.9 77.15 30 85.29 44.1 77.15"/><line class="cls-1" x1="30" y1="85.29" x2="30" y2="100.88"/><path class="cls-2" d="M86.05,75.31,76,69.48a4,4,0,0,0-4,0l-10.1,5.83a4,4,0,0,0-2,3.46V90.43a4,4,0,0,0,2,3.47L72,99.73a4,4,0,0,0,4,0l10.1-5.83a4,4,0,0,0,2-3.47V78.77A4,4,0,0,0,86.05,75.31Z"/><polyline class="cls-2" points="59.85 77.15 73.95 85.29 88.05 77.15"/><line class="cls-1" x1="73.95" y1="85.29" x2="73.95" y2="100.88"/></g></g></svg>