<svg xmlns="http://www.w3.org/2000/svg" viewBox="0 0 82.36 104.98"><defs><style>.cls-1,.cls-2,.cls-3{fill:none;stroke-miterlimit:10;stroke-width:3.3px;}.cls-1,.cls-2{stroke:#000111;}.cls-2,.cls-3{stroke-linecap:round;}.cls-3{stroke:#ff523d;}.cls-4{fill:#ff523d;}.cls-5{fill:#000111;}</style></defs><g id="Layer_2" data-name="Layer 2"><g id="Layer_1-2" data-name="Layer 1"><path class="cls-1" d="M22.57,86.43H5.65a4,4,0,0,1-4-4V5.65a4,4,0,0,1,4-4H50.29"/><path class="cls-1" d="M69.69,22.54V66"/><line class="cls-2" x1="18.66" y1="44.44" x2="52.68" y2="44.44"/><line class="cls-2" x1="18.66" y1="54.84" x2="52.68" y2="54.84"/><rect class="cls-3" x="23.75" y="64.71" width="56.95" height="38.62" rx="4"/><path class="cls-4" d="M62.3,86.22a4.85,4.85,0,0,1,0-4.91,4.84,4.84,0,0,0-6.62-6.62,4.83,4.83,0,0,1-4.9,0h0a4.85,4.85,0,0,0-6.61,6.59h0a4.83,4.83,0,0,1,0,4.9h0a4.84,4.84,0,0,0,6.62,6.62h0a4.85,4.85,0,0,1,4.9,0h0a4.85,4.85,0,0,0,6.6-6.6Zm-4,2.56,0,0a4,4,0,0,1-5.63,0l-4.49-4.5a4,4,0,0,1,0-5.62l0,0a4,4,0,0,1,5.62,0l4.5,4.5A4,4,0,0,1,58.3,88.78Z"/><path class="cls-5" d="M34,26.53a4.85,4.85,0,0,1,0-4.91A4.84,4.84,0,0,0,27.3,15a4.85,4.85,0,0,1-4.91,0h0a4.84,4.84,0,0,0-6.6,6.59h0a4.85,4.85,0,0,1,0,4.9h0a4.84,4.84,0,0,0,6.62,6.62h0a4.85,4.85,0,0,1,4.9,0h0a4.84,4.84,0,0,0,6.59-6.6Zm-4,2.56,0,0a4,4,0,0,1-5.62,0l-4.5-4.5a4,4,0,0,1,0-5.62l0,0a4,4,0,0,1,5.62,0l4.5,4.5A4,4,0,0,1,30,29.09Z"/><path class="cls-5" d="M70.12,17.6,52.79,1.1A4,4,0,0,0,50,0H47.54V18.74a6,6,0,0,0,6,6H71.36V20.5A4,4,0,0,0,70.12,17.6Z"/></g></g></svg>