<svg xmlns="http://www.w3.org/2000/svg" viewBox="0 0 123.72 96.89"><defs><style>.cls-1,.cls-2,.cls-3{fill:none;stroke-miterlimit:10;stroke-width:3.3px;}.cls-1,.cls-3{stroke:#000111;}.cls-2{stroke:#ff523d;}.cls-2,.cls-3{stroke-linecap:round;}</style></defs><g id="Layer_2" data-name="Layer 2"><g id="Layer_1-2" data-name="Layer 1"><rect class="cls-1" x="1.65" y="30.76" width="56.33" height="63.41" rx="4"/><path class="cls-1" d="M116.87,15.86v56a4,4,0,0,1-4,4H57.32"/><line class="cls-1" x1="39.31" y1="30.76" x2="39.31" y2="15.86"/><path class="cls-1" d="M74.56,56h7a2,2,0,0,1,2,2v7.39a0,0,0,0,1,0,0h-11a0,0,0,0,1,0,0V58A2,2,0,0,1,74.56,56Z"/><path class="cls-1" d="M85.6,47.4h7a2,2,0,0,1,2,2v16a0,0,0,0,1,0,0h-11a0,0,0,0,1,0,0v-16A2,2,0,0,1,85.6,47.4Z"/><path class="cls-1" d="M96.64,38.77h7a2,2,0,0,1,2,2V63.35a2,2,0,0,1-2,2h-9a0,0,0,0,1,0,0V40.77A2,2,0,0,1,96.64,38.77Z"/><rect class="cls-1" x="33.7" y="1.65" width="88.38" height="12.69" rx="3.3"/><line class="cls-1" x1="80.64" y1="75.68" x2="80.64" y2="86.65"/><circle class="cls-1" cx="80.64" cy="90.09" r="5.16"/><path class="cls-2" d="M65.21,48.72s18.24-3.79,27.08-22.11"/><path class="cls-3" d="M22.23,71l-7.37-7.37a1.17,1.17,0,0,1,0-1.66l7.37-7.37"/><path class="cls-3" d="M37.15,71l7.37-7.37a1.17,1.17,0,0,0,0-1.66l-7.37-7.37"/><path class="cls-2" d="M96,30.07,93.74,24a.73.73,0,0,0-.94-.43l-6.08,2.29"/><line class="cls-2" x1="31.69" y1="49.14" x2="26.84" y2="76.78"/><line class="cls-3" x1="77.44" y1="65.35" x2="66.11" y2="65.35"/></g></g></svg>