<svg xmlns="http://www.w3.org/2000/svg" viewBox="0 0 111.02 87.84"><defs><style>.cls-1,.cls-3{fill:none;stroke-miterlimit:10;stroke-width:3.3px;}.cls-1{stroke:#000111;}.cls-2{fill:#ff523d;}.cls-3{stroke:#ff523d;}.cls-4{fill:#000111;}</style></defs><g id="Layer_2" data-name="Layer 2"><g id="Layer_1-2" data-name="Layer 1"><path class="cls-1" d="M57.64,78h-52a4,4,0,0,1-4-4V5.65a4,4,0,0,1,4-4H93.83a4,4,0,0,1,4,4V35.88"/><circle class="cls-2" cx="15.39" cy="13.86" r="4.58"/><circle class="cls-2" cx="27.6" cy="13.86" r="4.58"/><circle class="cls-2" cx="39.82" cy="13.86" r="4.58"/><path class="cls-1" d="M97.42,62.44l10.91,5.3a1.87,1.87,0,0,1,0,3.35L78.77,85.46a7.33,7.33,0,0,1-6.4,0L42.81,71.09a1.87,1.87,0,0,1,0-3.35l10.91-5.3"/><path class="cls-3" d="M98.05,49.73l10.28,5a1.87,1.87,0,0,1,0,3.35L78.77,72.44a7.33,7.33,0,0,1-6.4,0L42.81,58.07a1.87,1.87,0,0,1,0-3.35l10.67-5.18"/><path class="cls-1" d="M108.33,44.73,78.77,59.1a7.27,7.27,0,0,1-6.4,0L42.81,44.73a1.86,1.86,0,0,1,0-3.34L72.37,27a7.33,7.33,0,0,1,6.4,0l29.56,14.37A1.86,1.86,0,0,1,108.33,44.73Z"/><path class="cls-4" d="M29.58,61.54a4.87,4.87,0,0,1,0-4.91A4.85,4.85,0,0,0,22.94,50,4.85,4.85,0,0,1,18,50h0a4.85,4.85,0,0,0-6.61,6.59h0a4.86,4.86,0,0,1,0,4.89h0a4.84,4.84,0,0,0,6.62,6.61h0a4.85,4.85,0,0,1,4.9,0h0a4.85,4.85,0,0,0,6.6-6.6Zm-4,2.56,0,0a4,4,0,0,1-5.62,0l-4.5-4.5a4,4,0,0,1,0-5.62l0,0a4,4,0,0,1,5.63,0l4.49,4.5A4,4,0,0,1,25.58,64.1Z"/></g></g></svg>