<svg xmlns="http://www.w3.org/2000/svg" viewBox="0 0 76.36 100.21"><defs><style>.cls-1,.cls-3{fill:none;stroke-miterlimit:10;stroke-width:3.3px;}.cls-1{stroke:#000111;fill-rule:evenodd;}.cls-2{fill:#000111;}.cls-3{stroke:#ff523d;}.cls-4{fill:#ff523d;}</style></defs><g id="Layer_2" data-name="Layer 2"><g id="Layer_1-2" data-name="Layer 1"><path class="cls-1" d="M62.78,85.78v8.78a4,4,0,0,1-4,4H5.65a4,4,0,0,1-4-4V5.65a4,4,0,0,1,4-4H58.78a4,4,0,0,1,4,4V55.49"/><path class="cls-2" d="M18.05,1.16H46.38a0,0,0,0,1,0,0V6.6a3,3,0,0,1-3,3H21.05a3,3,0,0,1-3-3V1.16a0,0,0,0,1,0,0Z"/><rect class="cls-2" x="9.85" y="21.78" width="11.93" height="11.93" rx="2"/><rect class="cls-2" x="26.25" y="21.78" width="11.93" height="11.93" rx="2"/><rect class="cls-2" x="42.65" y="21.78" width="11.93" height="11.93" rx="2"/><rect class="cls-2" x="9.85" y="38.18" width="11.93" height="11.93" rx="2"/><rect class="cls-2" x="26.25" y="38.18" width="11.93" height="11.93" rx="2"/><rect class="cls-2" x="42.65" y="38.18" width="11.93" height="11.93" rx="2"/><rect class="cls-2" x="9.85" y="54.58" width="11.93" height="11.93" rx="2"/><rect class="cls-2" x="26.25" y="54.58" width="11.93" height="11.93" rx="2"/><rect class="cls-3" x="44.89" y="56.82" width="29.82" height="29.82" rx="4"/><path class="cls-4" d="M68.86,74.2a4.85,4.85,0,0,1,0-4.9,4.84,4.84,0,0,0-6.62-6.61,4.85,4.85,0,0,1-4.9,0h0a4.84,4.84,0,0,0-6.6,6.59h0a4.85,4.85,0,0,1,0,4.9h0a4.84,4.84,0,0,0,6.61,6.61h0a4.85,4.85,0,0,1,4.9,0h0a4.84,4.84,0,0,0,6.59-6.6Zm-4,2.57,0,0a4,4,0,0,1-5.61,0l-4.5-4.49a4,4,0,0,1,0-5.62l0,0a4,4,0,0,1,5.61,0l4.5,4.5A4,4,0,0,1,64.87,76.77Z"/></g></g></svg>