<svg xmlns="http://www.w3.org/2000/svg" viewBox="0 0 116.58 94.59"><defs><style>.cls-1,.cls-3,.cls-4,.cls-5,.cls-6,.cls-7{fill:none;stroke-width:3.3px;}.cls-1,.cls-3,.cls-5,.cls-6,.cls-7{stroke:#000111;}.cls-1,.cls-3,.cls-4,.cls-6{stroke-miterlimit:10;}.cls-2{fill:#ff523d;}.cls-3,.cls-4,.cls-7{stroke-linecap:round;}.cls-4{stroke:#ff523d;}.cls-5,.cls-7{stroke-linejoin:round;}.cls-6{fill-rule:evenodd;}</style></defs><g id="Layer_2" data-name="Layer 2"><g id="Layer_1-2" data-name="Layer 1"><path class="cls-1" d="M37.31,14.73H54.79a4,4,0,0,1,4,4V83.78a4,4,0,0,1-4,4H5.65a4,4,0,0,1-4-4v-65a4,4,0,0,1,4-4H24.28"/><path class="cls-2" d="M29.25,45.94a4.85,4.85,0,0,1,0-4.91,4.84,4.84,0,0,0-6.62-6.62,4.83,4.83,0,0,1-4.9,0h0A4.85,4.85,0,0,0,11.09,41h0a4.85,4.85,0,0,1,0,4.9h0a4.85,4.85,0,0,0,6.62,6.62h0a4.85,4.85,0,0,1,4.9,0h0a4.84,4.84,0,0,0,6.59-6.6Zm-4,2.56,0,0a4,4,0,0,1-5.63,0L15.11,44a4,4,0,0,1,0-5.62l0,0a4,4,0,0,1,5.62,0l4.5,4.5A4,4,0,0,1,25.25,48.5Z"/><line class="cls-3" x1="12.24" y1="64.17" x2="46.67" y2="64.17"/><line class="cls-4" x1="12.24" y1="74.85" x2="24.45" y2="74.85"/><line class="cls-4" x1="85.23" y1="81.43" x2="97.44" y2="81.43"/><path class="cls-5" d="M26.43,1.65H35a2,2,0,0,1,2,2V20.46a0,0,0,0,1,0,0H24.43a0,0,0,0,1,0,0V3.65a2,2,0,0,1,2-2Z"/><path class="cls-6" d="M110.93,92.94H71.68a4,4,0,0,1-4-4V54.15a.91.91,0,0,0-.34-.7l-5.12-4a1.78,1.78,0,0,1-.12-2.71l5.29-4.88a.86.86,0,0,0,.29-.65V28.69a4,4,0,0,1,4-4h39.25a4,4,0,0,1,4,4V88.94A4,4,0,0,1,110.93,92.94Z"/><path class="cls-7" d="M106.61,70.51a15.78,15.78,0,0,0-30.54-.29Z"/><circle class="cls-1" cx="91.34" cy="44.89" r="8.55"/></g></g></svg>