<svg xmlns="http://www.w3.org/2000/svg" viewBox="0 0 99.48 91.85"><defs><style>.cls-1,.cls-3,.cls-4,.cls-5{fill:none;stroke-miterlimit:10;}.cls-1,.cls-3,.cls-4{stroke:#000111;}.cls-1,.cls-3,.cls-5{stroke-width:3.3px;}.cls-2{fill:#ff523d;}.cls-3,.cls-4,.cls-5{stroke-linecap:round;}.cls-4{stroke-width:3.5px;}.cls-5{stroke:#ff523d;}</style></defs><g id="Layer_2" data-name="Layer 2"><g id="Layer_1-2" data-name="Layer 1"><path class="cls-1" d="M35.64,78h-30a4,4,0,0,1-4-4V5.65a4,4,0,0,1,4-4H93.83a4,4,0,0,1,4,4V74a4,4,0,0,1-4,4H83.2"/><circle class="cls-2" cx="15.39" cy="13.86" r="4.58"/><circle class="cls-2" cx="27.6" cy="13.86" r="4.58"/><circle class="cls-2" cx="39.82" cy="13.86" r="4.58"/><rect class="cls-1" x="35.87" y="32.18" width="48.85" height="58.01" rx="4"/><line class="cls-3" x1="47.45" y1="66.16" x2="71.88" y2="66.16"/><line class="cls-4" x1="47.45" y1="55.48" x2="71.88" y2="55.48"/><line class="cls-5" x1="47.45" y1="76.85" x2="59.66" y2="76.85"/><line class="cls-3" x1="53.56" y1="13.86" x2="84.72" y2="13.86"/><line class="cls-3" x1="47.45" y1="55.48" x2="71.88" y2="55.48"/><line class="cls-3" x1="52.45" y1="44.48" x2="66.88" y2="44.48"/></g></g></svg>